<svg width="25" height="24" viewBox="0 0 25 24" fill="none" xmlns="http://www.w3.org/2000/svg">
<g clip-path="url(#clip0_1821_761)">
<path d="M12.1241 7.22198C11.2481 7.22198 9.89206 6.22598 8.46406 6.26198C6.58006 6.28598 4.85206 7.35397 3.88006 9.04597C1.92406 12.442 3.37606 17.458 5.28406 20.218C6.22006 21.562 7.32406 23.074 8.78806 23.026C10.1921 22.966 10.7201 22.114 12.4241 22.114C14.1161 22.114 14.5961 23.026 16.0841 22.99C17.5961 22.966 18.5561 21.622 19.4801 20.266C20.5481 18.706 20.9921 17.194 21.0161 17.11C20.9801 17.098 18.0761 15.982 18.0401 12.622C18.0161 9.81397 20.3321 8.46998 20.4401 8.40998C19.1201 6.47798 17.0921 6.26198 16.3841 6.21398C14.5361 6.06998 12.9881 7.22198 12.1241 7.22198ZM15.2441 4.38998C16.0241 3.45398 16.5401 2.14598 16.3961 0.849976C15.2801 0.897976 13.9361 1.59398 13.1321 2.52998C12.4121 3.35798 11.7881 4.68998 11.9561 5.96198C13.1921 6.05798 14.4641 5.32598 15.2441 4.38998Z" fill="white"/>
</g>
<defs>
<clipPath id="clip0_1821_761">
<rect width="24" height="24" fill="white" transform="translate(0.5)"/>
</clipPath>
</defs>
</svg>
