<svg width="25" height="24" viewBox="0 0 25 24" fill="none" xmlns="http://www.w3.org/2000/svg">
<path d="M12.6603 7.09333C14.1626 7.09333 15.1759 7.74222 15.7537 8.28444L18.0114 6.08C16.6248 4.79111 14.8203 4 12.6603 4C9.53145 4 6.82923 5.79556 5.51367 8.40889L8.10034 10.4178C8.74923 8.48889 10.5448 7.09333 12.6603 7.09333Z" fill="#EA4335"/>
<path d="M20.3402 12.1778C20.3402 11.52 20.2868 11.04 20.1713 10.5422H12.6602V13.5111H17.069C16.9802 14.2489 16.5002 15.36 15.4335 16.1067L17.9579 18.0622C19.469 16.6667 20.3402 14.6133 20.3402 12.1778Z" fill="#4285F4"/>
<path d="M8.10905 13.5823C7.94016 13.0845 7.84238 12.5512 7.84238 12C7.84238 11.4489 7.94016 10.9156 8.10016 10.4178L5.51349 8.40894C4.97127 9.49338 4.66016 10.7112 4.66016 12C4.66016 13.2889 4.97127 14.5067 5.51349 15.5912L8.10905 13.5823Z" fill="#FBBC05"/>
<path d="M12.6602 20.0001C14.8202 20.0001 16.6336 19.2889 17.958 18.0623L15.4336 16.1067C14.758 16.5778 13.8513 16.9067 12.6602 16.9067C10.5447 16.9067 8.74913 15.5112 8.10913 13.5823L5.52246 15.5912C6.83802 18.2045 9.53135 20.0001 12.6602 20.0001Z" fill="#34A853"/>
</svg>
